# xmcd CD database file generated by OrangeCD 5.0
#
# Track frame offsets:
#	150
#	19140
#	38151
#	53821
#	70524
#	85116
#	101920
#	120565
#	135985
#	149542
#	167904
#
# Disc length: 2388 seconds
#
# Revision: 5
# Processed by: cddbd v1.4PL0 Copyright (c) Steve Scherf et al.
# Submitted via: OrangeCD 5.0
#
DISCID=9109520b
DTITLE=Pino Daniele - Bella 'mbriana
DYEAR=1982
DGENRE=Blues
TTITLE0=Annarè
TTITLE1=Tutta 'nata storia
TTITLE2=Bella 'mbriana
TTITLE3=Tarumbò
TTITLE4=I got the blues
TTITLE5=Mo basta
TTITLE6=Io vivo come te
TTITLE7=Ma che mania
TTITLE8=Toledo
TTITLE9=E pò che fà
TTITLE10=Maggio se ne va
EXTD=Personnel:\nPino Daniele, voice, electric and acoustic guitar;\nJoe Amorus
EXTD=o, Keyboards;\nAlfonso Johnson, bass;\nWayne Shorter, sax;\nTullio De Pisc
EXTD=opo drums, percussion\nRosario Jermano percussion YEAR: 1982 ID3G:   0
EXTT0=
EXTT1=
EXTT2=
EXTT3=
EXTT4=
EXTT5=
EXTT6=
EXTT7=
EXTT8=
EXTT9=
EXTT10=
PLAYORDER=
